<?xml version="1.0" encoding="UTF-8" standalone="no"?>
<svg
   width="78.825554"
   height="68.07518"
   viewBox="0 0 20.855927 18.011558"
   version="1.1"
   id="svg5"
   inkscape:version="1.2.2 (732a01da63, 2022-12-09)"
   xml:space="preserve"
   xmlns:sodipodi="http://sodipodi.sourceforge.net/DTD/sodipodi-0.dtd"
   xmlns="http://www.w3.org/2000/svg"
   xmlns:svg="http://www.w3.org/2000/svg"><sodipodi:namedview
     id="namedview7"
     pagecolor="#c9c9c9"
     bordercolor="#ffffff"
     borderopacity="1"
     inkscape:showpageshadow="0"
     inkscape:pageopacity="0"
     inkscape:pagecheckerboard="true"
     inkscape:deskcolor="#c9c9c9"
     inkscape:document-units="px"
     showgrid="false"
     inkscape:zoom="1.4142136"
     inkscape:cx="454.31611"
     inkscape:cy="377.24147"
     inkscape:window-width="2455"
     inkscape:window-height="1368"
     inkscape:window-x="1411"
     inkscape:window-y="0"
     inkscape:window-maximized="0"
     inkscape:current-layer="layer1"
     showborder="false" /><defs
     id="defs2" /><g
     inkscape:label="Calque 1"
     inkscape:groupmode="layer"
     id="layer1"
     transform="translate(-151.32749,-83.987632)"><g
       id="g1264"
       transform="translate(2.4581305,-35.425998)"><path
         style="fill:#63c763;fill-opacity:1;stroke:#010209;stroke-width:0.79375;stroke-linecap:round;stroke-linejoin:round;stroke-dasharray:none;stroke-opacity:1;stop-color:#000000"
         d="m 157.96707,119.90287 c -0.89971,0.18874 -9.06633,8.90974 -8.6856,11.01793 0.27168,1.50434 6.20768,5.68434 7.93618,6.04024"
         id="path7652-9-4-4-2"
         sodipodi:nodetypes="csc" /><path
         sodipodi:type="star"
         style="fill:#ffffff;fill-opacity:1;stroke:#010209;stroke-width:0.537663;stroke-linecap:round;stroke-linejoin:round;stroke-dasharray:none;stroke-opacity:1;stop-color:#000000"
         id="path2958-7-0-7-4"
         inkscape:flatsided="true"
         sodipodi:sides="3"
         sodipodi:cx="64.055984"
         sodipodi:cy="19.520447"
         sodipodi:r1="5.9755254"
         sodipodi:r2="2.9877627"
         sodipodi:arg1="0.06053202"
         sodipodi:arg2="1.1077296"
         inkscape:rounded="0.1"
         inkscape:randomized="0"
         d="m 70.020566,19.881937 c -0.06261,1.033095 -8.39655,5.194015 -9.259931,4.623244 -0.863382,-0.570772 -0.299875,-9.868634 0.626118,-10.330958 0.925993,-0.462324 8.696425,4.674618 8.633813,5.707714 z"
         inkscape:transform-center-x="-1.488801"
         inkscape:transform-center-y="-0.27676368"
         transform="matrix(1.3282279,0,0,1.6408696,76.36385,96.665179)" /><g
         id="g52665-8-4"
         transform="matrix(0.33856665,0,0,0.33856665,97.24556,120.40994)"
         style="stroke:#000000;stroke-width:2.4539;stroke-dasharray:none"><g
           id="g51854-5-6"
           transform="translate(-76.976705,41.735376)"
           style="stroke:#000000;stroke-width:2.4539;stroke-dasharray:none"><path
             style="fill:none;fill-opacity:1;stroke:#000000;stroke-width:2.4539;stroke-linecap:round;stroke-dasharray:none;stroke-opacity:1;stop-color:#000000"
             d="m 260.4187,-36.202624 c -1.00623,2.735881 -4.24861,9.324412 -2.47708,16.606478 0,0 1.62779,7.727182 1.50252,8.815391"
             id="path51740-8-3"
             sodipodi:nodetypes="ccc" /><path
             style="fill:none;fill-opacity:1;stroke:#000000;stroke-width:2.4539;stroke-linecap:round;stroke-dasharray:none;stroke-opacity:1;stop-color:#000000"
             d="m 271.98324,-9.031235 -8.43587,-18.749288 c 0,0 -0.8825,-2.042395 -3.4383,-0.112232 -2.50766,1.893817 -2.40446,6.88688 -2.40446,6.88688"
             id="path51850-5-7" /></g><path
           style="fill:#ffffff;fill-opacity:1;stroke:#000000;stroke-width:2.4539;stroke-linecap:round;stroke-dasharray:none;stroke-opacity:1;stop-color:#000000"
           d="m 186.54906,39.565316 c 7.01082,-3.059431 12.98099,-7.308175 18.52275,-12.046539"
           id="path52147-3-4"
           sodipodi:nodetypes="cc" /><path
           style="fill:none;fill-opacity:1;stroke:#000000;stroke-width:2.4539;stroke-linecap:round;stroke-dasharray:none;stroke-opacity:1;stop-color:#000000"
           d="m 195.43406,33.786826 c 0,0 -6.89573,0.157576 -9.31619,-7.293025 -1.44328,-4.442674 2.67563,-7.792626 2.67563,-7.792626"
           id="path52635-5-8"
           sodipodi:nodetypes="csc" /><path
           style="fill:none;fill-opacity:1;stroke:#000000;stroke-width:2.4539;stroke-linecap:round;stroke-dasharray:none;stroke-opacity:1;stop-color:#000000"
           d="m 195.38799,33.816792 c 0,0 4.04664,-7.132342 0.0475,-13.844451 -2.36455,-3.968659 -6.87254,-1.104808 -6.87254,-1.104808"
           id="path52635-1-3-5"
           sodipodi:nodetypes="csc" /></g></g></g></svg>
