<?xml version="1.0" encoding="UTF-8" standalone="no"?>
<!-- Created with Inkscape (http://www.inkscape.org/) -->

<svg
   width="80.733582"
   height="70.404175"
   viewBox="0 0 21.36076 18.627771"
   version="1.1"
   id="svg5"
   xml:space="preserve"
   xmlns="http://www.w3.org/2000/svg"
   xmlns:svg="http://www.w3.org/2000/svg"><defs
     id="defs2" /><g
     id="layer1"
     transform="translate(-130.26694,-88.168876)"><g
       id="g1264"
       transform="translate(-18.336163,-30.936901)"
       style="stroke-width:1.32292;stroke-dasharray:none"><path
         style="fill:#63c763;fill-opacity:1;stroke:#010209;stroke-width:1.32292;stroke-linecap:round;stroke-linejoin:round;stroke-dasharray:none;stroke-opacity:1;stop-color:#000000"
         d="m 157.96707,119.90287 c -0.89971,0.18874 -9.06633,8.90974 -8.6856,11.01793 0.27168,1.50434 6.20768,5.68434 7.93618,6.04024"
         id="path7652-9-4-4-2" /><path
         style="fill:#ffffff;fill-opacity:1;stroke:#010209;stroke-width:0.896106;stroke-linecap:round;stroke-linejoin:round;stroke-dasharray:none;stroke-opacity:1;stop-color:#000000"
         id="path2958-7-0-7-4"
         d="m 70.020566,19.881937 c -0.06261,1.033095 -8.39655,5.194015 -9.259931,4.623244 -0.863382,-0.570772 -0.299875,-9.868634 0.626118,-10.330958 0.925993,-0.462324 8.696425,4.674618 8.633813,5.707714 z"
         transform="matrix(1.3282279,0,0,1.6408696,76.36385,96.665179)" /><g
         id="g52665-8-4"
         transform="matrix(0.33856665,0,0,0.33856665,97.24556,120.40994)"
         style="stroke:#000000;stroke-width:2.34444;stroke-dasharray:none"><g
           id="g51854-5-6"
           transform="translate(-76.976705,41.735376)"
           style="stroke:#000000;stroke-width:2.34444;stroke-dasharray:none"><path
             style="fill:none;fill-opacity:1;stroke:#000000;stroke-width:2.34444;stroke-linecap:round;stroke-dasharray:none;stroke-opacity:1;stop-color:#000000"
             d="m 260.4187,-36.202624 c -1.00623,2.735881 -4.24861,9.324412 -2.47708,16.606478 0,0 1.62779,7.727182 1.50252,8.815391"
             id="path51740-8-3" /><path
             style="fill:none;fill-opacity:1;stroke:#000000;stroke-width:2.34444;stroke-linecap:round;stroke-dasharray:none;stroke-opacity:1;stop-color:#000000"
             d="m 271.98324,-9.031235 -8.43587,-18.749288 c 0,0 -0.8825,-2.042395 -3.4383,-0.112232 -2.50766,1.893817 -2.40446,6.88688 -2.40446,6.88688"
             id="path51850-5-7" /></g><path
           style="fill:#ffffff;fill-opacity:1;stroke:#000000;stroke-width:2.34444;stroke-linecap:round;stroke-dasharray:none;stroke-opacity:1;stop-color:#000000"
           d="m 186.54906,39.565316 c 7.01082,-3.059431 12.98099,-7.308175 18.52275,-12.046539"
           id="path52147-3-4" /><path
           style="fill:none;fill-opacity:1;stroke:#000000;stroke-width:2.34444;stroke-linecap:round;stroke-dasharray:none;stroke-opacity:1;stop-color:#000000"
           d="m 195.43406,33.786826 c 0,0 -6.89573,0.157576 -9.31619,-7.293025 -1.44328,-4.442674 2.67563,-7.792626 2.67563,-7.792626"
           id="path52635-5-8" /><path
           style="fill:none;fill-opacity:1;stroke:#000000;stroke-width:2.34444;stroke-linecap:round;stroke-dasharray:none;stroke-opacity:1;stop-color:#000000"
           d="m 195.38799,33.816792 c 0,0 4.04664,-7.132342 0.0475,-13.844451 -2.36455,-3.968659 -6.87254,-1.104808 -6.87254,-1.104808"
           id="path52635-1-3-5" /></g></g></g></svg>
