<?xml version="1.0" encoding="UTF-8" standalone="no"?>
<!-- Created with Inkscape (http://www.inkscape.org/) -->

<svg
   width="27.265869"
   height="55.825409"
   viewBox="0 0 7.2140944 14.770473"
   version="1.1"
   id="svg5"
   xml:space="preserve"
   xmlns="http://www.w3.org/2000/svg"
   xmlns:svg="http://www.w3.org/2000/svg"><defs
     id="defs2" /><g
     id="layer1"
     transform="translate(-84.698876,-90.029716)"><g
       id="g52665"
       transform="matrix(0.40101716,0,0,0.41576112,12.581596,87.960926)"
       style="stroke:#000000;stroke-width:1.94393;stroke-dasharray:none"><g
         id="g51854"
         transform="translate(-76.976705,41.735376)"
         style="stroke:#000000;stroke-width:1.94393;stroke-dasharray:none"><path
           style="fill:none;fill-opacity:1;stroke:#000000;stroke-width:1.94393;stroke-linecap:round;stroke-dasharray:none;stroke-opacity:1;stop-color:#000000"
           d="m 267.35783,-35.787486 c -2.61162,3.294824 -9.06099,9.346236 -9.03725,19.122807 0,0 -0.20369,7.2581624 -0.53601,7.9483144"
           id="path51740" /><path
           style="fill:none;fill-opacity:1;stroke:#000000;stroke-width:1.94393;stroke-linecap:round;stroke-dasharray:none;stroke-opacity:1;stop-color:#000000"
           d="M 266.56255,-2.8557691 V -20.785662 c 0,0 0.0362,-3.108811 -3.398,-3.108811 -3.43415,0 -4.73552,5.675389 -4.73552,5.675389"
           id="path51850" /></g><path
         style="fill:#ffffff;fill-opacity:1;stroke:#000000;stroke-width:1.94393;stroke-linecap:round;stroke-dasharray:none;stroke-opacity:1;stop-color:#000000"
         d="m 182.35443,39.530288 h 14.49898"
         id="path52147" /><path
         style="fill:none;fill-opacity:1;stroke:#000000;stroke-width:1.94393;stroke-linecap:round;stroke-dasharray:none;stroke-opacity:1;stop-color:#000000"
         d="m 189.5497,39.530288 c 0,0 -4.59091,-2.205088 -4.59091,-7.844327 0,-4.26558 4.69937,-4.59092 4.69937,-4.59092"
         id="path52635" /><path
         style="fill:none;fill-opacity:1;stroke:#000000;stroke-width:1.94393;stroke-linecap:round;stroke-dasharray:none;stroke-opacity:1;stop-color:#000000"
         d="m 189.51357,39.530288 c 0,0 4.59091,-2.205088 4.59091,-7.844327 0,-4.26558 -4.69937,-4.59092 -4.69937,-4.59092"
         id="path52635-1" /></g></g></svg>
