<?xml version="1.0" encoding="UTF-8" standalone="no"?>
<!-- Created with Inkscape (http://www.inkscape.org/) -->

<svg
   width="214.21588"
   height="73.211121"
   viewBox="0 0 56.677951 19.370442"
   version="1.1"
   id="svg5"
   xml:space="preserve"
   xmlns="http://www.w3.org/2000/svg"
   xmlns:svg="http://www.w3.org/2000/svg"><defs
     id="defs2" /><g
     id="layer1"
     transform="translate(-82.166932,-17.624821)"><g
       id="g2"
       transform="translate(9.4065166,-89.770887)"><path
         style="fill:#ffffff;fill-opacity:1;stroke:none;stroke-width:1.05833;stop-color:#000000"
         d="m 97.394267,115.16507 -0.85717,1.94315 -0.008,2.43349 0.55942,0.69009 1.41657,-0.32689 1.47974,-3.17805 c 0,0 0.279713,-1.91592 0.234603,-1.91592 -0.0452,0 -2.815123,0.31781 -2.815123,0.31781 z"
         id="path629-5-0-9-7-2-2" /><path
         style="fill:#ffcc00;fill-opacity:1;stroke:none;stroke-width:1.16944;stop-color:#000000"
         d="m 75.918479,114.27974 -1.046605,1.94317 -0.01031,2.43349 0.683048,0.69009 1.729635,-0.32689 1.806769,-3.17807 c -0.361226,-1.56567 -0.874749,-1.78608 -2.28324,-2.50184 z"
         id="path629-0-1-4-6-6-9-0" /><path
         style="font-size:13.5719px;font-family:Cakecafe;-inkscape-font-specification:Cakecafe;text-align:center;letter-spacing:-0.357187px;text-anchor:middle;fill:#ffcc00;fill-opacity:1;stroke:#000000;stroke-width:0.79375;stroke-dasharray:none;stroke-opacity:1"
         d="m 119.49522,111.79958 c 0,-0.80996 -0.57488,-1.60062 -1.4947,-1.60062 -0.78568,0 -1.41805,0.80996 -1.41805,1.54277 0,0.80996 0.86232,1.38849 1.648,1.38849 0.82401,0 1.26475,-0.57853 1.26475,-1.33064 z"
         id="path52864-1-2-3-6" /><path
         style="font-size:13.5719px;font-family:Cakecafe;-inkscape-font-specification:Cakecafe;text-align:center;letter-spacing:-0.357187px;text-anchor:middle;stroke-width:1.05833"
         d="m 117.54171,114.85008 c -0.21087,0 -0.38003,0.10685 -0.55156,0.33581 -0.17151,0.22899 -0.31904,0.57282 -0.43019,0.95468 -0.22231,0.76375 -0.30336,1.68025 -0.30336,2.16469 0,0.65141 0.0962,1.62216 0.37229,2.39782 0.13809,0.38784 0.31985,0.72408 0.54053,0.95191 0.22066,0.22784 0.46639,0.35247 0.79145,0.35247 0.17965,0 0.30051,-0.0645 0.39712,-0.18317 0.0966,-0.11865 0.15994,-0.29949 0.15994,-0.51064 0,-0.84294 -0.34471,-1.95396 -0.34471,-3.10551 0,-0.32319 0.0899,-0.76186 0.16822,-1.23499 0.0782,-0.47314 0.14659,-0.97117 0.12128,-1.30993 -0.0254,-0.33241 -0.12086,-0.51627 -0.25922,-0.63276 -0.13837,-0.11651 -0.35149,-0.18038 -0.66185,-0.18038 z"
         id="path54992-0-9-7-7" /><path
         style="font-size:13.5719px;font-family:Cakecafe;-inkscape-font-specification:Cakecafe;text-align:center;letter-spacing:-0.357187px;text-anchor:middle;stroke-width:1.05833"
         d="m 91.201527,113.07668 c -0.3098,0 -0.52038,0.14625 -0.71425,0.4385 -0.19388,0.29225 -0.337417,0.7255 -0.432964,1.20168 -0.19108,0.95237 -0.193042,2.06305 -0.193042,2.60319 0,0.49183 0.0281,1.64019 0.223385,2.64204 0.09771,0.50094 0.240811,0.9649 0.421931,1.27941 0.18112,0.31449 0.36379,0.45791 0.60119,0.45791 0.47945,0 0.76665,-0.36709 0.76665,-0.8298 0,-0.59591 -0.15444,-1.17421 -0.15444,-1.8511 0,-0.76857 0.20569,-1.62886 0.63703,-2.32289 0.43134,-0.69402 1.11937,-1.22666 2.02693,-1.22666 0.26561,0 0.45436,-0.0639 0.57361,-0.1693 0.11931,-0.10529 0.19304,-0.25897 0.19304,-0.52452 0,-0.29416 -0.16076,-0.4785 -0.43021,-0.6272 -0.26943,-0.1487 -0.63652,-0.22202 -0.9128,-0.22202 -0.50329,0 -0.94326,0.22514 -1.46987,0.46069 a 0.24714333,0.2487144 0 0 1 -0.34472,-0.21092 c -0.0169,-0.26528 -0.0954,-0.56369 -0.22889,-0.77152 -0.13343,-0.20784 -0.29283,-0.32749 -0.56258,-0.32749 z"
         id="path54986-5-7-8-6" /><path
         id="path54984-7-6-2-8"
         style="font-size:13.5719px;font-family:Cakecafe;-inkscape-font-specification:Cakecafe;text-align:center;letter-spacing:-0.357187px;text-anchor:middle;stroke-width:1.05833"
         d="m 101.37211,112.95995 c -0.33558,0 -0.57904,0.26283 -0.84347,0.58597 a 0.24714333,0.2487144 0 0 1 -0.21816,0.0888 c -0.557203,-0.0622 -0.966693,-0.23056 -1.428643,-0.23056 -1.22966,0 -2.12104,0.60709 -2.73546,1.51262 -0.61439,0.90553 -0.92665,2.11228 -0.92665,3.23306 0,0.67877 0.14564,1.51271 0.4823,2.14559 0.33665,0.63288 0.82222,1.05736 1.58843,1.05736 0.52401,0 0.98714,-0.31894 1.38488,-0.79156 0.39773,-0.47261 0.71131,-1.0832 0.91571,-1.57871 a 0.24714333,0.2487144 0 0 1 0.426853,-0.0529 c 0.29315,0.40317 0.53452,0.77698 0.80843,1.03241 0.2739,0.25543 0.56547,0.40532 1.04487,0.40532 0.23814,0 0.441,-0.0711 0.57934,-0.19458 0.13837,-0.12348 0.2262,-0.29882 0.2262,-0.57716 0,-0.2012 -0.0343,-0.2508 -0.0993,-0.32161 -0.0649,-0.0708 -0.19557,-0.15271 -0.35023,-0.30252 -0.3093,-0.29964 -0.60416,-0.85385 -0.60416,-2.17054 0,-1.14172 0.39986,-2.1507 0.39986,-3.06639 0,-0.22843 -0.0693,-0.42635 -0.1817,-0.561 -0.11239,-0.1347 -0.25977,-0.21367 -0.46916,-0.21367 z m -2.434833,2.2785 c 0.18206,0 0.35528,0.0496 0.53776,0.11083 a 0.24714333,0.2487144 0 0 1 0.15176,0.33044 c -0.39367,0.98095 -0.62383,1.96931 -1.10031,2.92832 -0.13287,0.29121 -0.26954,0.53765 -0.40861,0.72694 -0.14049,0.19126 -0.2702,0.34573 -0.49616,0.38844 -0.11295,0.0213 -0.2532,-0.0128 -0.34439,-0.0888 -0.0912,-0.0763 -0.14309,-0.17388 -0.18241,-0.28344 -0.0786,-0.21911 -0.11013,-0.50737 -0.11013,-0.91272 0,-0.53478 0.10307,-1.29315 0.38599,-1.95099 0.1414,-0.32893 0.32659,-0.63429 0.58445,-0.86573 0.25785,-0.23144 0.59516,-0.38329 0.9821,-0.38329 z" /><path
         style="font-size:13.5719px;font-family:Cakecafe;-inkscape-font-specification:Cakecafe;text-align:center;letter-spacing:-0.357187px;text-anchor:middle;stroke-width:1.05833"
         d="m 113.60074,112.90184 c -0.87101,-0.0549 -1.5208,0.15941 -2.10691,0.51898 -0.5861,0.35955 -1.10199,0.87443 -1.64912,1.41537 a 0.24714333,0.2487144 0 0 1 -0.36954,-0.025 c -0.37025,-0.47907 -0.8843,-0.835 -1.4864,-0.86866 a 0.24714333,0.2487144 0 0 1 -0.008,0 c -0.55845,-0.0512 -1.16677,0.15566 -1.69325,0.46625 a 0.24714333,0.2487144 0 0 1 -0.36934,-0.1915 c -0.0281,-0.33037 -0.0751,-0.63463 -0.17925,-0.8298 -0.1042,-0.19516 -0.23094,-0.30879 -0.5681,-0.33303 -0.26163,-0.0166 -0.48842,0.15276 -0.71976,0.52175 -0.23133,0.36898 -0.42648,0.9103 -0.57637,1.49308 -0.29977,1.16558 -0.4272,2.49252 -0.45502,2.97785 -0.0294,0.53295 -0.11564,1.46662 -0.0113,2.2535 0.0522,0.39346 0.15602,0.74404 0.31162,0.97968 0.15559,0.23563 0.3384,0.36454 0.65358,0.3802 a 0.24714333,0.2487144 0 0 1 0.006,0.003 c 0.32021,0.0215 0.52086,-0.0402 0.66186,-0.13599 0.14091,-0.0958 0.23673,-0.2359 0.3061,-0.43015 0.13851,-0.3878 0.13879,-0.95733 0.16822,-1.45424 v -0.003 c 0.057,-1.15039 0.0481,-1.88426 0.30611,-2.5116 a 0.24714333,0.2487144 0 0 1 0.006,-0.0114 c 0.22471,-0.4846 0.59165,-0.94524 1.04241,-1.09898 0.22538,-0.0769 0.52398,-0.0243 0.69219,0.19148 0.16822,0.2158 0.23164,0.51988 0.23164,0.95747 0.0287,0.68774 0.0825,1.50425 0.26751,2.12862 0.0931,0.31376 0.21925,0.57388 0.37229,0.74932 0.15304,0.17544 0.32303,0.27339 0.56534,0.28863 0.26057,0.019 0.38796,-0.0558 0.52948,-0.23867 0.14152,-0.18276 0.26467,-0.49291 0.37781,-0.87976 0.22628,-0.77372 0.42498,-1.83713 0.96797,-2.80857 0.39022,-0.70486 0.93218,-1.41193 1.50846,-1.67624 0.14407,-0.0661 0.29966,-0.10543 0.46055,-0.0833 0.16088,0.0222 0.31587,0.11737 0.42192,0.25531 0.21212,0.27601 0.28575,0.68829 0.27578,1.32103 a 0.24714333,0.2487144 0 0 1 0,0.003 c -0.0292,1.23471 -0.20534,2.64191 -0.15444,3.72439 0.0254,0.54125 0.11169,0.99819 0.27027,1.29605 0.1585,0.29787 0.35378,0.45045 0.72528,0.47457 a 0.24714333,0.2487144 0 0 1 0.003,0 c 0.31962,0.0247 0.54877,-0.0583 0.7115,-0.19982 0.16273,-0.14167 0.26571,-0.35218 0.28956,-0.6161 0.0755,-1.45205 0.058,-2.99405 0.13513,-4.46816 a 0.24714333,0.2487144 0 0 1 0,-0.003 c 0.0568,-0.85621 0.0467,-1.73595 -0.20959,-2.38116 -0.25627,-0.64524 -0.70851,-1.07977 -1.70978,-1.15174 z"
         id="path54982-5-3-3-3" /><path
         id="path54980-2-0-9-9"
         style="font-size:13.5719px;font-family:Cakecafe;-inkscape-font-specification:Cakecafe;text-align:center;letter-spacing:-0.357187px;text-anchor:middle;stroke-width:1.05833"
         d="m 76.535592,112.7103 c -0.93953,0 -1.264795,0.27749 -1.905843,0.97954 a 0.24714333,0.2487144 0 0 1 -0.008,0.006 c -0.369424,0.37177 -0.846699,1.00657 -1.221431,1.67857 -0.374734,0.672 -0.639901,1.39151 -0.639902,1.8871 0,0.226 0.06522,0.32098 0.173656,0.40313 0.108439,0.0821 0.282046,0.13485 0.471353,0.16081 a 0.24714333,0.2487144 0 0 1 0.140829,0.0719 l 0.05764,0.058 a 0.24714333,0.2487144 0 0 1 0.0715,0.1498 l 0.03867,0.40532 a 0.24714333,0.2487144 0 0 1 0,0.0419 c -0.0448,0.6312 -0.0016,2.55002 0.337097,4.26033 0.169346,0.85516 0.414735,1.6634 0.741324,2.23371 0.326586,0.5703 0.698007,0.87673 1.166707,0.87673 0.240483,0 0.450486,-0.0684 0.593204,-0.19092 0.14272,-0.12263 0.234218,-0.29605 0.234218,-0.58302 0,-0.2711 -0.07937,-0.32572 -0.248081,-0.47215 -0.1687,-0.14636 -0.43531,-0.35621 -0.529701,-0.75993 a 0.24714333,0.2487144 0 0 1 0,-0.003 c -0.198045,-0.87688 -0.240053,-1.76275 -0.240053,-2.60006 v -0.34732 a 0.24714333,0.2487144 0 0 1 0.07442,-0.17476 c 0.131199,-0.13201 0.250577,-0.17333 0.317397,-0.21368 a 0.24714333,0.2487144 0 0 1 0.03867,-0.0197 c 1.020374,-0.39567 1.9931,-0.95801 2.702619,-1.72044 0.709517,-0.76241 1.16087,-1.71486 1.16087,-2.94447 -10e-7,-1.02942 -0.419368,-1.80636 -1.070395,-2.34752 -0.651026,-0.54115 -1.541209,-0.83561 -2.456725,-0.83561 z m 0.446545,1.38192 c 0.103976,5.1e-4 0.210001,0.021 0.306452,0.0558 0.1929,0.0696 0.369199,0.19151 0.528995,0.34439 0.319587,0.30575 0.576422,0.73944 0.576422,1.20716 0,0.6379 -0.296711,1.22881 -0.697544,1.71749 -0.400832,0.48868 -0.910336,0.88134 -1.392899,1.12932 a 0.24714333,0.2487144 0 0 1 -0.148848,0.025 l -0.134983,-0.019 a 0.24714333,0.2487144 0 0 1 -0.209408,-0.28048 l 0.421737,-3.28006 v 0.0142 c 0.03248,-0.40852 0.182297,-0.71183 0.444355,-0.8437 0.09872,-0.0497 0.20175,-0.0702 0.305723,-0.0698 z" /><path
         style="font-size:13.5719px;font-family:Cakecafe;-inkscape-font-specification:Cakecafe;text-align:center;letter-spacing:-0.357187px;text-anchor:middle;stroke-width:1.05833"
         d="m 82.456568,112.43837 c -0.341038,-0.0213 -0.596328,0.0993 -0.830076,0.33304 -0.235819,0.2357 -0.433414,0.59484 -0.587394,1.00464 -0.307963,0.81958 -0.439724,1.82956 -0.496392,2.42834 -0.08373,1.00175 -0.0082,2.3604 0.394355,3.46351 0.402538,1.10312 1.087537,1.92788 2.294421,2.03427 0.850103,0.06 1.457428,-0.28024 1.985612,-0.80482 0.529371,-0.5258 0.955697,-1.23942 1.373339,-1.86497 a 0.24714333,0.2487144 0 0 1 0.446757,0.0944 c 0.115921,0.66158 0.214688,1.36122 0.154426,2.10919 a 0.24714333,0.2487144 0 0 1 0,0.006 c -0.107168,1.08767 -0.291329,1.87873 -0.719759,2.42557 -0.428444,0.54685 -1.094012,0.78818 -1.996618,0.78818 a 0.24714333,0.2487144 0 0 1 -0.02203,-0.003 c -0.233156,-0.022 -0.403974,0.058 -0.537786,0.19982 -0.133853,0.14181 -0.218648,0.3525 -0.226131,0.56338 a 0.24714333,0.2487144 0 0 1 -0.0028,0.0166 c -0.03784,0.36542 0.144803,0.72823 0.449517,1.01574 0.304714,0.28752 0.725293,0.48128 1.064516,0.5051 a 0.24714333,0.2487144 0 0 1 0.0028,0 c 1.236082,0.0999 2.133535,-0.39358 2.782541,-1.19615 0.648483,-0.8019 1.02861,-1.92434 1.130666,-3.03057 v -0.003 c 0.184895,-2.25971 -0.455412,-6.51777 -0.744581,-8.97796 -2.4e-4,-0.001 -0.0028,-0.001 -0.0028,-0.003 -0.04377,-0.23536 -0.12044,-0.45991 -0.237166,-0.6161 -0.116345,-0.15569 -0.256256,-0.2537 -0.493634,-0.27752 h -0.0056 c -0.206908,-0.0128 -0.33075,0.0617 -0.44951,0.20536 -0.120016,0.14512 -0.212881,0.37014 -0.264742,0.60501 a 0.24714333,0.2487144 0 0 1 -0.0028,0.0142 c -0.07808,0.28795 -0.216354,1.03524 -0.421934,1.89828 -0.205581,0.86301 -0.479119,1.85329 -0.854897,2.68921 -0.315968,0.71977 -0.651434,1.21046 -1.006583,1.5042 -0.355559,0.29406 -0.777875,0.3795 -1.116893,0.20258 -0.339024,-0.17689 -0.55751,-0.54933 -0.686676,-1.03795 -0.128996,-0.48795 -0.167558,-1.10669 -0.09377,-1.83721 v -0.003 c 0.06862,-0.76737 0.212317,-1.55579 0.341963,-2.19522 0.06495,-0.32013 0.128206,-0.60215 0.173741,-0.82426 0.04561,-0.2221 0.07469,-0.39637 0.07723,-0.44127 a 0.24714333,0.2487144 0 0 1 0,-0.009 c 0.0209,-0.22472 -0.07512,-0.45703 -0.245426,-0.64386 -0.169689,-0.18612 -0.409207,-0.31625 -0.623256,-0.33858 z"
         id="path54978-6-7-7-6" /><g
         id="g1"
         transform="matrix(1.0845651,0,0,1.0845651,-16.845513,-9.9700494)"
         style="stroke-width:0.922029"><path
           style="fill:#ffcc00;fill-opacity:1;stroke:none;stroke-width:1.06877;stop-color:#000000"
           d="m 128.53627,113.94595 -1.60484,1.93046 -0.0158,2.41762 1.04738,0.68559 2.65223,-0.32475 2.10184,-2.05261 c 0,0 -0.92479,-3.23774 -4.1808,-2.65631 z"
           id="path629-0-8-3-7-4-4" /><path
           id="path51900-0-1-7"
           style="font-size:13.5719px;font-family:Cakecafe;-inkscape-font-specification:Cakecafe;text-align:center;letter-spacing:-0.357187px;text-anchor:middle;stroke-width:0.975811"
           d="m 134.10455,108.21458 c -0.33875,0 -0.6002,0.1889 -0.83693,0.54189 -0.23671,0.35299 -0.4238,0.85999 -0.56246,1.4082 -0.2773,1.09642 -0.36837,2.34367 -0.43962,2.9216 a 0.19907341,0.19907341 0 0 1 -0.28446,0.15283 c -0.85907,-0.42173 -1.41346,-0.77934 -2.4144,-0.77934 -1.21405,0 -2.1729,0.6065 -2.84578,1.51047 -0.67289,0.90398 -1.04382,2.10518 -1.04382,3.2431 0,0.80402 0.18079,1.70486 0.59067,2.38324 0.40988,0.67837 1.02173,1.13725 1.95715,1.13725 1.40711,0 2.69024,-1.15179 3.81377,-2.01003 a 0.19907341,0.19907341 0 0 1 0.31797,0.12637 c 0.0717,0.46139 0.1302,1.1352 0.3156,1.67503 0.0927,0.2699 0.21535,0.50166 0.37086,0.65767 0.15552,0.15601 0.33602,0.24448 0.59949,0.24448 0.53457,0 0.94213,-0.45715 0.94213,-1.00443 0,-1.23172 -0.32443,-2.48164 -0.32443,-3.81143 0,-0.4365 0.18455,-0.7441 0.18455,-1.0485 0,-0.0949 -0.0322,-0.18628 -0.0759,-0.2868 -0.0437,-0.10054 -0.10873,-0.20511 -0.10873,-0.36205 0,-1.37643 0.18819,-2.70953 0.29562,-4.04477 a 0.19907341,0.19907341 0 0 1 0,-0.009 c 0.0814,-0.65146 0.32208,-1.33 0.32208,-1.84371 0,-0.51001 -0.31324,-0.80166 -0.77345,-0.80166 z m -4.55373,5.74213 c 0.6399,0 1.27512,0.28957 1.7573,0.72644 0.48217,0.43687 0.81989,1.03102 0.81989,1.66622 0,0.45734 -0.30973,0.89908 -0.73114,1.29065 -0.42142,0.39157 -0.97163,0.73073 -1.53514,0.92156 -0.56351,0.19082 -1.15123,0.24119 -1.62332,-0.0114 -0.47209,-0.25232 -0.7711,-0.80752 -0.7711,-1.66151 0,-0.58352 0.15138,-1.29039 0.48194,-1.87485 0.33056,-0.58446 0.86953,-1.05734 1.60157,-1.05734 z" /></g></g></g></svg>
